<svg width="512" height="512" viewBox="0 0 512 512" fill="none" xmlns="http://www.w3.org/2000/svg">
  <circle cx="256" cy="256" r="256" fill="white"/>

  <circle cx="256" cy="256" r="230" stroke="#BBBBBB" stroke-width="3" stroke-dasharray="12 12"/>
  <circle cx="256" cy="256" r="170" stroke="#DDDDDD" stroke-width="3" stroke-dasharray="10 10"/>
  <circle cx="256" cy="256" r="110" stroke="#EEEEEE" stroke-width="3" stroke-dasharray="8 8"/>

  <g transform="translate(256, 256)">
    <path d="M0 0 L0 -168 A168 168 0 0 1 118.8 -118.8 Z" fill="#FF6B6B"/>
    
    <path d="M0 0 L152.7 -152.7 A216 216 0 0 1 216 0 Z" fill="#4ECDC4"/>
    
    <path d="M0 0 L144 0 A144 144 0 0 1 101.8 101.8 Z" fill="#45B7D1"/>
    
    <path d="M0 0 L135.7 135.7 A192 192 0 0 1 0 192 Z" fill="#FFA07A"/>
    
    <path d="M0 0 L0 120 A120 120 0 0 1 -84.8 84.8 Z" fill="#96CEB4"/>
    
    <path d="M0 0 L-152.7 152.7 A216 216 0 0 1 -216 0 Z" fill="#D4A5A5"/>
    
    <path d="M0 0 L-168 0 A168 168 0 0 1 -118.8 -118.8 Z" fill="#9B59B6"/>
    
    <path d="M0 0 L-101.8 -101.8 A144 144 0 0 1 0 -144 Z" fill="#3498DB"/>
  </g>
</svg>